<?xml version="1.0" encoding="utf-8"?>
<!-- Generator: Adobe Illustrator 19.0.0, SVG Export Plug-In . SVG Version: 6.00 Build 0)  -->
<svg version="1.1" id="Capa_1" xmlns="http://www.w3.org/2000/svg" xmlns:xlink="http://www.w3.org/1999/xlink" x="0px" y="0px"
	 viewBox="-64 191.8 712.1 211.5" style="enable-background:new -64 191.8 712.1 211.5;" xml:space="preserve">
<style type="text/css">
	.st0{fill:#3B2314;}
	.st1{fill:#6B9E45;}
	.st2{fill:#FFFFFF;}
	.st3{fill:url(#XMLID_2_);}
	.st4{fill:url(#XMLID_3_);}
	.st5{fill:url(#XMLID_4_);}
	.st6{fill:url(#XMLID_5_);}
	.st7{fill:url(#XMLID_6_);}
	.st8{fill:url(#XMLID_7_);}
	.st9{fill:url(#XMLID_8_);}
	.st10{fill:url(#XMLID_9_);}
	.st11{fill:url(#XMLID_10_);}
	.st12{fill:url(#XMLID_11_);}
	.st13{fill:url(#XMLID_12_);}
	.st14{fill:url(#XMLID_13_);}
	.st15{fill:url(#XMLID_14_);}
	.st16{fill:url(#XMLID_15_);}
	.st17{fill:url(#XMLID_16_);}
	.st18{fill:url(#XMLID_17_);}
	.st19{fill:url(#XMLID_18_);}
	.st20{fill:url(#XMLID_19_);}
	.st21{fill:url(#XMLID_20_);}
	.st22{fill:url(#XMLID_21_);}
	.st23{fill:url(#XMLID_22_);}
	.st24{fill:url(#XMLID_23_);}
	.st25{fill:url(#XMLID_24_);}
	.st26{fill:url(#XMLID_25_);}
	.st27{fill:url(#XMLID_26_);}
	.st28{fill:url(#XMLID_27_);}
	.st29{fill:url(#XMLID_28_);}
	.st30{fill:url(#XMLID_29_);}
	.st31{fill:url(#XMLID_30_);}
	.st32{fill:url(#XMLID_31_);}
	.st33{fill:url(#XMLID_32_);}
	.st34{fill:url(#XMLID_33_);}
	.st35{fill:url(#XMLID_34_);}
	.st36{fill:url(#XMLID_35_);}
	.st37{fill:url(#XMLID_36_);}
	.st38{fill:url(#XMLID_37_);}
	.st39{fill:url(#XMLID_38_);}
	.st40{fill:url(#XMLID_39_);}
	.st41{fill:url(#XMLID_40_);}
	.st42{fill:url(#XMLID_41_);}
	.st43{fill:url(#XMLID_42_);}
	.st44{fill:url(#XMLID_43_);}
	.st45{fill:url(#XMLID_44_);}
	.st46{fill:url(#XMLID_45_);}
	.st47{fill:url(#XMLID_46_);}
	.st48{fill:url(#XMLID_47_);}
	.st49{fill:url(#XMLID_48_);}
	.st50{fill:url(#XMLID_49_);}
	.st51{fill:url(#XMLID_50_);}
	.st52{fill:url(#XMLID_51_);}
	.st53{fill:url(#XMLID_52_);}
</style>
<g id="XMLID_53_">
</g>
<g id="XMLID_54_">
</g>
<g id="XMLID_55_">
</g>
<g id="XMLID_56_">
</g>
<g id="XMLID_57_">
</g>
<g id="XMLID_202_">
	<g id="XMLID_179_">
		<path id="XMLID_200_" class="st0" d="M171.4,384.3c1.4,0,2.5-0.4,3.3-1.3c0.8-0.8,1.2-2,1.2-3.4h7.4l0.1,0.2
			c0.1,3-1.1,5.6-3.4,7.6c-2.3,2-5.2,3.1-8.6,3.1c-4.4,0-7.8-1.4-10.3-4.2c-2.4-2.8-3.6-6.4-3.6-10.9v-0.8c0-4.4,1.2-8,3.6-10.9
			c2.4-2.8,5.8-4.3,10.2-4.3c3.7,0,6.6,1.1,8.8,3.2c2.2,2.1,3.3,4.9,3.2,8.3l-0.1,0.2H176c0-1.5-0.4-2.8-1.2-3.9
			c-0.8-1-2-1.5-3.4-1.5c-2.1,0-3.6,0.8-4.4,2.5c-0.9,1.7-1.3,3.8-1.3,6.4v0.8c0,2.7,0.4,4.8,1.3,6.4
			C167.7,383.5,169.2,384.3,171.4,384.3z"/>
		<path id="XMLID_197_" class="st0" d="M211.8,374.7c0-4.5,1.2-8.1,3.7-11c2.5-2.8,5.9-4.3,10.3-4.3c4.4,0,7.9,1.4,10.4,4.3
			c2.5,2.8,3.8,6.5,3.8,11v0.6c0,4.5-1.2,8.2-3.7,11c-2.5,2.8-6,4.2-10.4,4.2c-4.4,0-7.9-1.4-10.4-4.2c-2.5-2.8-3.7-6.5-3.7-11
			V374.7z M219.8,375.3c0,2.7,0.5,4.9,1.4,6.6c1,1.7,2.5,2.5,4.6,2.5c2.1,0,3.6-0.8,4.6-2.5c1-1.7,1.5-3.8,1.5-6.6v-0.6
			c0-2.7-0.5-4.8-1.5-6.5c-1-1.7-2.5-2.5-4.6-2.5c-2.1,0-3.6,0.8-4.6,2.5c-1,1.7-1.5,3.8-1.5,6.5V375.3z"/>
		<path id="XMLID_195_" class="st0" d="M277.3,360l0.4,4.3c1-1.5,2.2-2.7,3.7-3.6c1.5-0.8,3.1-1.3,4.9-1.3c3,0,5.4,1,7.1,2.9
			c1.7,1.9,2.5,5,2.5,9.2v18.3h-8.1v-18.3c0-2.1-0.4-3.7-1.1-4.5c-0.7-0.9-1.9-1.3-3.4-1.3c-1.2,0-2.3,0.2-3.2,0.7
			c-0.9,0.5-1.7,1.1-2.3,1.9v21.7h-8.1V360H277.3z"/>
		<path id="XMLID_193_" class="st0" d="M381.6,367l-3-0.1c-1.2,0-2.2,0.2-3,0.7c-0.8,0.5-1.4,1.2-1.8,2.1v20.2h-8.1V360h7.5l0.4,4.4
			c0.7-1.6,1.6-2.8,2.7-3.7c1.1-0.9,2.4-1.3,3.9-1.3c0.4,0,0.8,0,1.1,0.1c0.3,0.1,0.7,0.1,1,0.2L381.6,367z"/>
		<path id="XMLID_190_" class="st0" d="M428.4,389.9c-0.3-0.7-0.5-1.4-0.8-2.2c-0.2-0.8-0.4-1.5-0.5-2.3c-0.8,1.5-1.9,2.7-3.3,3.6
			c-1.4,1-3,1.4-4.9,1.4c-3.1,0-5.6-0.8-7.2-2.4c-1.7-1.6-2.5-3.8-2.5-6.6c0-2.9,1.1-5.2,3.4-6.8c2.3-1.6,5.6-2.4,9.9-2.4h4.5v-2.4
			c0-1.4-0.4-2.6-1.1-3.3c-0.8-0.8-1.9-1.2-3.4-1.2c-1.3,0-2.3,0.3-3,1c-0.7,0.6-1.1,1.5-1.1,2.6h-7.8l-0.1-0.2
			c-0.1-2.5,1-4.7,3.3-6.5c2.3-1.8,5.4-2.8,9.1-2.8c3.6,0,6.5,0.9,8.7,2.7c2.2,1.8,3.3,4.4,3.3,7.8v12.4c0,1.4,0.1,2.7,0.3,4
			c0.2,1.2,0.5,2.5,1,3.7H428.4z M421,384.6c1.4,0,2.7-0.4,3.8-1.1c1.1-0.7,1.9-1.5,2.3-2.4v-4.2h-4.5c-1.7,0-3,0.4-3.9,1.3
			c-0.9,0.8-1.3,1.9-1.3,3.1c0,1,0.3,1.8,1,2.4C418.9,384.3,419.8,384.6,421,384.6z"/>
		<path id="XMLID_187_" class="st0" d="M474.7,389.9h-8.1V360h8.1V389.9z M472.3,347.8h9l0.1,0.2l-7.7,7.2h-6.9L472.3,347.8z"/>
		<path id="XMLID_185_" class="st0" d="M519,384.3c1.4,0,2.5-0.4,3.3-1.3c0.8-0.8,1.2-2,1.2-3.4h7.4l0.1,0.2c0.1,3-1.1,5.6-3.4,7.6
			c-2.3,2-5.2,3.1-8.6,3.1c-4.4,0-7.8-1.4-10.3-4.2c-2.4-2.8-3.6-6.4-3.6-10.9v-0.8c0-4.4,1.2-8,3.6-10.9c2.4-2.8,5.8-4.3,10.2-4.3
			c3.7,0,6.6,1.1,8.8,3.2c2.2,2.1,3.3,4.9,3.2,8.3l-0.1,0.2h-7.4c0-1.5-0.4-2.8-1.2-3.9c-0.8-1-2-1.5-3.4-1.5
			c-2.1,0-3.6,0.8-4.4,2.5c-0.9,1.7-1.3,3.8-1.3,6.4v0.8c0,2.7,0.4,4.8,1.3,6.4C515.4,383.5,516.9,384.3,519,384.3z"/>
		<path id="XMLID_182_" class="st0" d="M573.7,390.5c-4.5,0-7.9-1.4-10.5-4.1c-2.5-2.7-3.8-6.3-3.8-10.6v-1.1c0-4.5,1.2-8.2,3.7-11
			c2.4-2.9,5.8-4.3,10-4.3c4,0,7.1,1.2,9.3,3.7c2.1,2.5,3.2,5.8,3.2,9.9v4.2h-17.8l-0.1,0.2c0.1,2,0.8,3.7,1.9,5
			c1.1,1.3,2.8,1.9,5,1.9c1.8,0,3.3-0.2,4.6-0.6c1.3-0.4,2.6-0.9,3.9-1.7l2.2,5c-1.2,1-2.8,1.8-4.9,2.5
			C578.3,390.2,576.1,390.5,573.7,390.5z M573.1,365.7c-1.6,0-2.9,0.6-3.7,1.7c-0.9,1.1-1.4,2.6-1.6,4.4l0.1,0.1h9.8v-0.6
			c0-1.8-0.4-3.1-1.1-4.1C575.9,366.2,574.7,365.7,573.1,365.7z"/>
		<path id="XMLID_180_" class="st0" d="M631.4,381.7c0-0.9-0.4-1.6-1.3-2.3c-0.9-0.6-2.4-1.2-4.8-1.7c-3.5-0.7-6.2-1.8-8-3.2
			c-1.8-1.4-2.7-3.3-2.7-5.8c0-2.6,1.1-4.7,3.3-6.6c2.2-1.8,5.1-2.7,8.7-2.7c3.8,0,6.8,0.9,9.1,2.7c2.3,1.8,3.4,4.1,3.3,6.7
			l-0.1,0.2h-7.8c0-1.2-0.4-2.2-1.2-2.9c-0.8-0.8-1.9-1.1-3.3-1.1c-1.3,0-2.3,0.3-3.1,1c-0.8,0.6-1.1,1.4-1.1,2.4
			c0,0.9,0.4,1.7,1.2,2.3c0.8,0.6,2.4,1.1,4.8,1.6c3.7,0.7,6.4,1.8,8.2,3.3c1.8,1.4,2.7,3.4,2.7,5.9c0,2.7-1.2,4.9-3.5,6.6
			c-2.3,1.7-5.3,2.6-9.1,2.6c-4,0-7.1-1-9.4-3c-2.3-2-3.4-4.3-3.3-6.9l0.1-0.2h7.4c0.1,1.6,0.6,2.8,1.6,3.5s2.3,1.1,3.9,1.1
			c1.5,0,2.6-0.3,3.4-0.9C631,383.5,631.4,382.7,631.4,381.7z"/>
	</g>
	<g id="XMLID_162_">
		<path id="XMLID_177_" class="st0" d="M178.2,270.4l-1.6-6.2h-1.1v6.2v70.2h-18.1V205.9h17.6l19.3,70.2l1.6,6.2h1.1v-6.2v-70.2
			h18.2v134.8h-17.6L178.2,270.4z"/>
		<path id="XMLID_175_" class="st0" d="M327.5,340.7L314.9,256l-0.7-5.7h-1.1v5.7v84.7h-18.3V205.9h24.2l11.7,61.6l0.9,7.2h0.4
			l0.9-7.2l11.7-61.6h24.2v134.8h-18.3V256v-5.7h-1.1l-0.7,5.7L336,340.7H327.5z"/>
		<path id="XMLID_172_" class="st0" d="M378,340.7l20.3-134.8h24.2l20.4,134.8h-19.3l-3.7-27.5h-19.1l-3.7,27.5H378z M411.6,249.7
			l-0.6-3.5h-1.1l-0.6,3.5l-5.7,42.5h13.6L411.6,249.7z"/>
		<path id="XMLID_169_" class="st0" d="M467.7,340.7h-15.6V205.9h15.6c36.7,0.2,39.4,14.7,39.4,67.5
			C507.1,326,504.4,340.5,467.7,340.7z M471.9,320.9c13.9,0,14.9-3.5,14.7-47.7c0.2-44-0.7-47.5-14.7-47.5V320.9z"/>
		<path id="XMLID_166_" class="st0" d="M514.9,340.7l20.3-134.8h24.2l20.4,134.8h-19.3l-3.7-27.5h-19.1l-3.7,27.5H514.9z
			 M548.4,249.7l-0.6-3.5h-1.1l-0.6,3.5l-5.7,42.5h13.6L548.4,249.7z"/>
		<path id="XMLID_164_" class="st0" d="M611.7,204.4c23.8-0.6,27.7,20.7,27.7,35.8L620,242c0-9-1.3-19.4-7.9-19.4
			c-5.1,0.2-6.8,5.7-6.8,13.4c0,9.2,7.9,19.4,15.6,30.6c9.2,13.8,18.5,27.1,18.5,41.6c0,18-5.9,33.9-27.5,33.9
			c-25.5,0-28.8-19.3-28.8-39.2l19.4-1.8c0,11.2,1.1,22.9,9.3,22.9c5.9,0,8.1-6.4,8.1-14.9c0-9-8.4-19.8-16-31.2
			c-9.3-13.8-18.1-27.5-18.1-42C585.9,221.3,593,204.8,611.7,204.4z"/>
	</g>
	<path id="XMLID_161_" class="st1" d="M254,342.1c-26.6,0-26.4-29.2-26.4-29.2v-48.8c0,0-0.2-29.2,26.4-29.2
		c26.6,0,26.4,29.2,26.4,29.2V313C280.4,313,280.6,342.1,254,342.1z"/>
	<path id="XMLID_160_" class="st2" d="M256.2,326.5c0,0-7.3-50.4-5.6-51.4s9.1,45.9,9.1,45.9c6.2-11.7,19.1-40.7-11.9-64.3
		C247.8,256.7,218,296.4,256.2,326.5z"/>
	<path id="XMLID_159_" class="st0" d="M278.3,221.8h-48.6c-1.2,0-2.1-0.9-2.1-2.1V208c0-1.2,0.9-2.1,2.1-2.1h48.6
		c1.2,0,2.1,0.9,2.1,2.1v11.7C280.4,220.9,279.5,221.8,278.3,221.8z"/>
</g>
<g id="XMLID_282_">
	<path id="XMLID_281_" class="st0" d="M120.5,343.4H-54.8c-0.5,0-0.9-0.4-0.9-0.9v-1.2c0-0.5,0.4-0.9,0.9-0.9h175.4
		c0.5,0,0.9,0.4,0.9,0.9v1.2C121.4,343.1,121,343.4,120.5,343.4z"/>
	<path id="XMLID_280_" class="st0" d="M109.5,359.2c-4.8,0.1-9.4-2.5-14.2-2.2c-1,0.1-2,0.5-3,0.6c-2.9,0.3-5.7-0.9-8.1-2.2
		c-2.6-1.4-5.6-2.6-8.6-3.4c-0.5-0.3-1.2-0.6-1.9-0.8c-2.8-0.7-5.8-1.5-8.7-1.9c-2.9-0.4-5.8-0.5-8.4-1.8c-3.4-1.7-6.9-3-10.7-4
		c-2.8-0.7-5.5-3.9-6.9-3.9c-0.1-0.1-5.2-0.9-9.3,0c-3.5,0.7-5.9,3.1-7.1,3.4c-3.8,1-7.3,2.2-10.7,4c-2.6,1.3-5.5,1.4-8.4,1.8
		c-2.9,0.4-5.9,1.1-8.7,1.9c-0.4,0.1-0.8,0.2-1.1,0.4c-3.1,0.5-6.2,1.3-9,2.4c-2.9,1.1-4.7,2.4-8.2,1.9c-1.2-0.2-2.3-0.9-3.6-1.1
		c-4.7-0.6-9.6,1.5-14.3,1c-1.2-0.1-1.2,1.5,0,1.7c5.3,0.5,10.8-2.1,15.9-0.5c3.2,1,5.1,1.3,8.2-0.2c2.5-1.2,5.2-2.2,7.9-2.9
		c-0.7,0.7-1.3,1.5-2.2,2.2c-4,3.5-9.8,7.5-15.9,6.5c-1.2-0.2-1.7,1.4-0.5,1.6c6.9,1.1,13.1-2.9,17.7-6.9c1.7-1.5,3.2-3.7,5.6-4.5
		c1.6-0.5,3.6-0.6,5.3-1.1c2.4-0.7,4.8-0.9,7.4-1.3c4.1-0.6,7.2-2.8,11.1-4.1c3-1,8-2.9,11.9-3c-1.3,0.7-2.4,1.7-3.3,2.9
		c-0.7,1-0.9,2.2-1.6,3.1c-1.6,2.2-3.1,2.7-5.6,3.3c-0.8,0.2-1.5,0.5-2.2,0.9c-0.1,0-0.1,0-0.2,0.1c-3.5,1.7-7,1.3-10.8,1.4
		c-3,0.1-5.1,1.9-8,2.4c-1.2,0.2-0.7,1.8,0.5,1.6c1.4-0.2,2.5-0.7,3.7-1.3c2.6-1.1,4.4-0.9,7.2-0.9c1.6,0,3.1-0.1,4.6-0.5
		c-1.2,1.6-2.2,3.5-3.6,5.1c-3.2,3.6-12,4.9-16.8,6.1c-5.8,1.4-12.2,3-18.3,2.2c-1.2-0.2-1.7,1.4-0.5,1.6c7.7,1.1,16-0.9,23.7-3.2
		c-0.8,2.7-1.6,6.2-3.4,8.1c-0.9,1-2.1,1.1-3.2,1.8c-1.2,0.7-1.9,1.6-2.6,2.7c-0.6,0.9,1.1,1.8,1.7,0.8c1.5-2.6,5-2.6,6.4-5
		c1.6-2.7,2.4-6.2,3.4-9.1c2-0.6,4-1.2,5.9-1.8c1-0.3,1.9-0.6,2.6-1c0.4,0.9,1.1,2,1.3,2.9c0.3,1.2-0.6,2.2-1.1,3.4
		c-0.9,2.1-1.1,4.2-0.8,6.4c0.1,1,2.1,1.1,1.9,0c-0.2-1.5-0.2-3.1,0.2-4.6c0.4-1.3,1.3-2.3,1.7-3.5c0.6-1.7-0.7-3.5-1.4-5.1
		c-0.1-0.2-0.3-0.4-0.5-0.4c0.7-0.6,1.4-1.4,2.1-2.4c1.9-2.7,3.2-6,7-7.1c2.5-0.7,4.2-0.5,5.8-2.4c2.3-2.8,2.5-5.6,6.1-7.5
		c0,0.2,0,0.5,0.1,0.8c-0.3,1.9-0.3,3.7-0.2,5.6c-0.1,2.3,0,4.5,1.1,6.5c0.5,2.4,0.5,4.6-1.8,6.5c-1.5,1.2-3.3,2.1-4.8,3.3
		c-2.4,1.9-3.3,3.9-3.1,6.7c0.3,4.2,0.8,6.5-2.6,9.9c-2,2.1-4.2,4.1-6.4,6.1c-0.8,0.8,0.5,2,1.4,1.2c3.3-3.1,8.2-6.5,9.7-10.7
		c0.6-1.7,0.2-3.2,0.1-4.9c-0.2-1.5-0.1-2.6,0.1-3.6c0.7,2.6,2.3,5.1,3.5,7.5c1.6,3.4,0.6,5.8,4.2,8.3c0.9,0.7,2.3-0.5,1.4-1.2
		c-3-2.1-2.4-5-3.7-7.8c-1.5-3.1-3.8-6.2-3.7-9.7c0.8-0.8,1.8-1.5,3.1-2.4c2.4-1.6,4.8-3.2,5.3-6c0-0.2,0-0.5,0.1-0.7
		c0.1,0.1,0.2,0.2,0.3,0.3c2.4,2.7,1,2.9,0.1,5.3c-0.5,1.3-0.8,2.3-0.2,3.6c0.4,0.9,1.1,1.6,1.8,2.2c-2.7,1.9-4,4.8-3.4,7.9
		c0.2,1,2,0.6,1.8-0.4c-0.4-2.4,0.7-4.8,2.9-6.2c0.6,0.7,1.2,1.4,1.4,2.5c0.3,1.3-0.3,2.5,0.7,3.7c1.1,1.2,2.8,1,4.2,1.6
		c4,1.5,6.3,7.3,8.1,10.3c0.6,0.9,2.2,0.1,1.7-0.8c-2-3.3-4-9.1-8.2-10.8c-2-0.8-3.5,0-4.6-2.8c-0.2-0.6,0.1-1.6-0.1-2.3
		c-0.4-1.4-1.4-2-2.4-3.1c-1.2-1.5-2-3.3-1.6-5.4c0.2-0.7,0.9-1.4,1.1-2.2c0.3-1.4,0.1-2.2-0.9-3.4c-1.2-1.4-2.4-2.2-3.2-3.3
		c-0.4-1.5-1-3.1-1.1-4.5c0-0.2,0-0.5-0.1-0.7c0.1-2.1,0.4-4.2,0.2-6.3c0-0.3,0.1-0.6,0.1-0.9c0.1,0,0.2,0,0.3-0.1
		c2,1.8,2.5,4.1,4.4,6.4c1.6,2,3.4,1.7,5.8,2.4c1.3,0.4,2.3,1,3.1,1.7c0.1,0.1,0.2,0.2,0.3,0.2c1.5,1.5,2.5,3.4,3.7,5.1
		c0.7,1,1.4,1.8,2.1,2.4c-0.1,0.1-0.2,0.2-0.2,0.3c-0.7,1.6-2.1,3.4-1.4,5.1c0.4,1,1.2,2,1.6,3c0.6,1.7,0.6,3.3,0.4,5
		c-0.1,1.1,1.8,1,1.9,0c0.3-2.2,0.1-4.3-0.8-6.4c-0.4-1-1.4-2-1.2-3.1c0.2-0.9,0.9-2,1.3-3c0.7,0.3,1.5,0.6,2.4,0.9
		c2.5,0.7,5.1,1.5,7.7,2.3c-0.1,0.2-0.2,0.4-0.1,0.7c1.1,3,1.8,6.5,3.5,9.3c1.4,2.4,4.9,2.4,6.4,5c0.6,0.9,2.2,0.1,1.7-0.8
		c-0.6-1-1.2-1.8-2.2-2.5c-1.2-0.8-2.6-1.1-3.6-2.1c-2.1-2.1-2.8-6.3-3.8-9.1c7.3,2.1,15,3.7,22.3,2.7c1.2-0.2,0.7-1.8-0.5-1.6
		c-6.1,0.8-12.5-0.7-18.3-2.2c-4.8-1.2-13.6-2.5-16.8-6.1c-1.1-1.2-1.9-2.5-2.7-3.8c1.6,0.5,3.2,0.8,5,0.8c2.2,0,4.1-0.2,6.2,0.7
		c1.5,0.6,2.6,1.2,4.2,1.5c1.2,0.2,1.7-1.4,0.5-1.6c-2.7-0.5-4.7-2.1-7.4-2.4c-4-0.3-6.9,0.2-10.6-1.7c-1-1-2.2-1.8-3.9-2.2
		c-3-0.8-3.1,0.5-5.6-3.3c-0.6-1-0.9-2.1-1.6-3.1c-0.2-0.3-0.5-0.6-0.7-0.9c3.8,0.3,8.4,2.1,11.3,3c3.9,1.2,7,3.5,11.1,4.1
		c2.5,0.4,4.9,0.6,7.4,1.3c1.7,0.5,3.7,0.6,5.3,1.1c0.3,0.1,0.6,0.2,0.9,0.4c0.1,0,0.1,0.1,0.2,0.1c1.8,1,3.1,2.8,4.5,4
		c4.7,4,10.9,8.1,17.7,6.9c1.2-0.2,0.7-1.8-0.5-1.6c-6.1,1-11.8-3-15.9-6.5c-0.5-0.4-0.9-0.8-1.3-1.3c2.4,1,4.6,2.2,7,3.5
		c3,1.7,5,0.9,8.4,0.4c5.1-0.8,10.1,2.1,15.2,2C110.7,360.8,110.7,359.2,109.5,359.2z"/>
</g>
<linearGradient id="XMLID_2_" gradientUnits="userSpaceOnUse" x1="21.8401" y1="335.7578" x2="49.7025" y2="335.7578" gradientTransform="matrix(0.9961 8.850031e-02 -8.850031e-02 0.9961 -30.7668 -64.5527)">
	<stop  offset="0" style="stop-color:#8BC53F"/>
	<stop  offset="1" style="stop-color:#006838"/>
</linearGradient>
<path id="XMLID_279_" class="st3" d="M-11.4,279.2l-18.9-8.3l18.8,6.1c-2.6-4.5-10.7-15-26.8-9.9C-38.3,267.1-31.5,285.3-11.4,279.2
	z"/>
<linearGradient id="XMLID_3_" gradientUnits="userSpaceOnUse" x1="-14.6948" y1="229.5576" x2="2.4519" y2="229.5576" gradientTransform="matrix(1 -8.396694e-05 8.396694e-05 1 -40.6863 42.7868)">
	<stop  offset="0" style="stop-color:#8BC53F"/>
	<stop  offset="1" style="stop-color:#006838"/>
</linearGradient>
<path id="XMLID_278_" class="st4" d="M-38.2,275.4l-12-4.1l11.8,2.8c-1.9-2.6-7.4-8.6-16.9-4.7C-55.4,269.4-50.1,280.2-38.2,275.4z"
	/>
<linearGradient id="XMLID_4_" gradientUnits="userSpaceOnUse" x1="428.3028" y1="704.2262" x2="450.6973" y2="704.2262" gradientTransform="matrix(1.0582 0.5516 -0.574 0.9826 -74.6418 -674.2745)">
	<stop  offset="0" style="stop-color:#8BC53F"/>
	<stop  offset="1" style="stop-color:#006838"/>
</linearGradient>
<path id="XMLID_277_" class="st5" d="M-4.2,270.1l-13.6-13.8l14.4,11.9c-0.5-4.8-3.5-16.5-20.1-17.9
	C-23.5,250.3-24.9,268.1-4.2,270.1z"/>
<linearGradient id="XMLID_5_" gradientUnits="userSpaceOnUse" x1="419.7756" y1="979.5101" x2="436.3214" y2="979.5101" gradientTransform="matrix(0.7429 0.6694 -0.6694 0.7429 307.2439 -770.5121)">
	<stop  offset="0" style="stop-color:#8BC53F"/>
	<stop  offset="1" style="stop-color:#006838"/>
</linearGradient>
<path id="XMLID_276_" class="st6" d="M-26.3,251.4l-6-10.7l6.8,9.5c0.5-3.1,0.6-11.1-9.3-14.2C-34.7,236.1-38.5,247.4-26.3,251.4z"
	/>
<linearGradient id="XMLID_6_" gradientUnits="userSpaceOnUse" x1="97.6848" y1="498.077" x2="114.7108" y2="498.077" gradientTransform="matrix(0.9757 0.2189 -0.2189 0.9757 5.3023 -231.9199)">
	<stop  offset="0" style="stop-color:#8BC53F"/>
	<stop  offset="1" style="stop-color:#006838"/>
</linearGradient>
<path id="XMLID_275_" class="st7" d="M7.5,282.1l-10.8-6.5l10.9,5.2c-1.2-3-5.2-10-15.4-8C-7.8,272.7-5.2,284.3,7.5,282.1z"/>
<linearGradient id="XMLID_7_" gradientUnits="userSpaceOnUse" x1="249.564" y1="820.0217" x2="266.3096" y2="820.0217" gradientTransform="matrix(0.8605 0.5094 -0.5094 0.8605 155.0242 -580.8356)">
	<stop  offset="0" style="stop-color:#8BC53F"/>
	<stop  offset="1" style="stop-color:#006838"/>
</linearGradient>
<path id="XMLID_274_" class="st8" d="M-35,263l-8.1-9.3l8.7,8.1c-0.2-3.2-1.7-11-12.1-12.2C-46.6,249.5-47.9,261.3-35,263z"/>
<linearGradient id="XMLID_8_" gradientUnits="userSpaceOnUse" x1="481.2826" y1="1001.1514" x2="497.7863" y2="1001.1514" gradientTransform="matrix(0.7131 0.7011 -0.7011 0.7131 343.9785 -811.7493)">
	<stop  offset="0" style="stop-color:#8BC53F"/>
	<stop  offset="1" style="stop-color:#006838"/>
</linearGradient>
<path id="XMLID_273_" class="st9" d="M-5,253.2l-5.5-10.9l6.4,9.8c0.6-3.1,1.1-11.1-8.6-14.5C-12.7,237.6-17,248.7-5,253.2z"/>
<linearGradient id="XMLID_9_" gradientUnits="userSpaceOnUse" x1="545.2331" y1="1015.7861" x2="561.4931" y2="1015.7861" gradientTransform="matrix(0.6698 0.7426 -0.7426 0.6698 365.3007 -859.267)">
	<stop  offset="0" style="stop-color:#8BC53F"/>
	<stop  offset="1" style="stop-color:#006838"/>
</linearGradient>
<path id="XMLID_272_" class="st10" d="M-15.2,240l-4.6-11.2l5.6,10.1c0.9-3.1,2-11.1-7.5-15C-21.7,224-26.8,235-15.2,240z"/>
<linearGradient id="XMLID_10_" gradientUnits="userSpaceOnUse" x1="677.0296" y1="1112.826" x2="693.3597" y2="1112.826" gradientTransform="matrix(0.5589 0.8292 -0.8292 0.5589 534.9581 -965.6239)">
	<stop  offset="0" style="stop-color:#8BC53F"/>
	<stop  offset="1" style="stop-color:#006838"/>
</linearGradient>
<path id="XMLID_271_" class="st11" d="M-2.8,233l-3.1-11.7l4.2,10.8c1.3-2.9,3.4-10.7-5.4-15.9C-7.1,216.2-13.6,226.3-2.8,233z"/>
<linearGradient id="XMLID_11_" gradientUnits="userSpaceOnUse" x1="692.3641" y1="1110.1071" x2="708.6942" y2="1110.1071" gradientTransform="matrix(0.5589 0.8292 -0.8292 0.5589 534.9581 -965.6239)">
	<stop  offset="0" style="stop-color:#8BC53F"/>
	<stop  offset="1" style="stop-color:#006838"/>
</linearGradient>
<path id="XMLID_270_" class="st12" d="M8.1,244.2L5,232.4l4.2,10.8c1.3-2.9,3.4-10.7-5.4-15.9C3.8,227.4-2.8,237.5,8.1,244.2z"/>
<linearGradient id="XMLID_12_" gradientUnits="userSpaceOnUse" x1="319.8492" y1="820.8735" x2="336.5475" y2="820.8735" gradientTransform="matrix(0.8356 0.5493 -0.5493 0.8356 181.9464 -613.9928)">
	<stop  offset="0" style="stop-color:#8BC53F"/>
	<stop  offset="1" style="stop-color:#006838"/>
</linearGradient>
<path id="XMLID_269_" class="st13" d="M10.7,259.2L3,249.5l8.3,8.5c0-3.2-1.2-11.1-11.4-12.7C-0.1,245.3-2.1,257,10.7,259.2z"/>
<linearGradient id="XMLID_13_" gradientUnits="userSpaceOnUse" x1="860.7336" y1="1151.0199" x2="876.9642" y2="1151.0199" gradientTransform="matrix(0.4213 0.9069 -0.9069 0.4213 688.9426 -1054.3418)">
	<stop  offset="0" style="stop-color:#8BC53F"/>
	<stop  offset="1" style="stop-color:#006838"/>
</linearGradient>
<path id="XMLID_268_" class="st14" d="M11.8,227.2l-1.1-12l2.3,11.3c1.7-2.7,5.2-10-2.7-16.5C10.3,210,2.2,219,11.8,227.2z"/>
<linearGradient id="XMLID_14_" gradientUnits="userSpaceOnUse" x1="438.1478" y1="711.9268" x2="460.5423" y2="711.9268" gradientTransform="matrix(0.9743 0.6891 -0.7012 0.8963 79.125 -670.4711)">
	<stop  offset="0" style="stop-color:#8BC53F"/>
	<stop  offset="1" style="stop-color:#006838"/>
</linearGradient>
<path id="XMLID_267_" class="st15" d="M25.9,288.5L14.2,273L27,286.7c0.1-4.8-1.2-16.8-17.6-20.4C9.4,266.2,5.7,283.7,25.9,288.5z"
	/>
<linearGradient id="XMLID_15_" gradientUnits="userSpaceOnUse" x1="1194.8018" y1="1149.3833" x2="1214.8552" y2="1149.3833" gradientTransform="matrix(0.3018 1.1546 -1.1136 0.2343 948.615 -1390.3293)">
	<stop  offset="0" style="stop-color:#8BC53F"/>
	<stop  offset="1" style="stop-color:#006838"/>
</linearGradient>
<path id="XMLID_266_" class="st16" d="M31.1,282.5l1.4-17.4l0.5,16.8c3.1-3.3,9.7-12.5,0.3-24.2C33.3,257.6,19.6,267.7,31.1,282.5z"
	/>
<linearGradient id="XMLID_16_" gradientUnits="userSpaceOnUse" x1="1195.2734" y1="1147.8025" x2="1214.3541" y2="1147.8025" gradientTransform="matrix(0.2912 1.1573 -1.1157 0.2241 951.1711 -1400.6621)">
	<stop  offset="0" style="stop-color:#8BC53F"/>
	<stop  offset="1" style="stop-color:#006838"/>
</linearGradient>
<path id="XMLID_265_" class="st17" d="M20,262.7l1.6-16.6l0.2,16c3-3.1,9.5-11.9,0.7-23.1C22.5,239,9.3,248.6,20,262.7z"/>
<linearGradient id="XMLID_17_" gradientUnits="userSpaceOnUse" x1="1150.9172" y1="1215.3427" x2="1167.0828" y2="1215.3427" gradientTransform="matrix(0.1989 0.98 -0.98 0.1989 980.6201 -1148.1744)">
	<stop  offset="0" style="stop-color:#8BC53F"/>
	<stop  offset="1" style="stop-color:#006838"/>
</linearGradient>
<path id="XMLID_264_" class="st18" d="M18.7,238l1.9-12L20,237.5c2.4-2.3,7.5-8.6,1.5-16.6C21.5,220.9,11.3,227.9,18.7,238z"/>
<linearGradient id="XMLID_18_" gradientUnits="userSpaceOnUse" x1="1058.671" y1="1194.7026" x2="1074.849" y2="1194.7026" gradientTransform="matrix(0.2865 0.9581 -0.9581 0.2865 871.2433 -1121.1943)">
	<stop  offset="0" style="stop-color:#8BC53F"/>
	<stop  offset="1" style="stop-color:#006838"/>
</linearGradient>
<path id="XMLID_263_" class="st19" d="M31.6,251.8l0.7-12.1l0.6,11.5c2.1-2.5,6.6-9.2-0.1-16.7C32.8,234.5,23.4,242.4,31.6,251.8z"
	/>
<linearGradient id="XMLID_19_" gradientUnits="userSpaceOnUse" x1="1031.899" y1="1186.8245" x2="1055.5409" y2="1186.8245" gradientTransform="matrix(0.2865 0.9581 -0.9581 0.2865 871.2433 -1121.1943)">
	<stop  offset="0" style="stop-color:#8BC53F"/>
	<stop  offset="0.3074" style="stop-color:#65A13F"/>
	<stop  offset="1" style="stop-color:#006838"/>
</linearGradient>
<path id="XMLID_262_" class="st20" d="M32.3,231.4l1.1-17.6l0.8,16.8c3.1-3.6,9.7-13.4-0.2-24.4C34,206.2,20.2,217.7,32.3,231.4z"/>
<linearGradient id="XMLID_20_" gradientUnits="userSpaceOnUse" x1="-83.626" y1="535.1211" x2="-66.4792" y2="535.1211" gradientTransform="matrix(0.9305 0.3663 0.3663 -0.9305 -173.178 810.9285)">
	<stop  offset="0" style="stop-color:#8BC53F"/>
	<stop  offset="1" style="stop-color:#006838"/>
</linearGradient>
<path id="XMLID_323_" class="st21" d="M-37.9,285.8l-12.7-0.6l12,1.7c-2.7,1.8-10.1,5.3-17.5-1.9C-56,285.1-47.2,277-37.9,285.8z"/>
<linearGradient id="XMLID_21_" gradientUnits="userSpaceOnUse" x1="552.7854" y1="941.3924" x2="575.1799" y2="941.3924" gradientTransform="matrix(1.0582 -0.5516 -0.574 -0.9826 -74.6418 1545.4862)">
	<stop  offset="0" style="stop-color:#8BC53F"/>
	<stop  offset="1" style="stop-color:#006838"/>
</linearGradient>
<path id="XMLID_306_" class="st22" d="M-8.6,299.4l-13.6,13.8l14.4-11.9c-0.5,4.8-3.5,16.5-20.1,17.9
	C-27.9,319.2-29.3,301.4-8.6,299.4z"/>
<linearGradient id="XMLID_22_" gradientUnits="userSpaceOnUse" x1="588.1209" y1="1251.7211" x2="604.6666" y2="1251.7211" gradientTransform="matrix(0.9005 -0.4348 -0.4348 -0.9005 -31.0094 1697.1012)">
	<stop  offset="0" style="stop-color:#8BC53F"/>
	<stop  offset="1" style="stop-color:#006838"/>
</linearGradient>
<path id="XMLID_304_" class="st23" d="M-32,304.4l-8.8,8.6l9.2-7.3c-0.4,3.2-2.5,10.8-12.9,11C-44.5,316.7-44.9,304.8-32,304.4z"/>
<linearGradient id="XMLID_23_" gradientUnits="userSpaceOnUse" x1="276.1725" y1="1125.4694" x2="292.9182" y2="1125.4694" gradientTransform="matrix(0.9755 0.2202 0.2202 -0.9755 -572.2351 1334.5044)">
	<stop  offset="0" style="stop-color:#8BC53F"/>
	<stop  offset="1" style="stop-color:#006838"/>
</linearGradient>
<path id="XMLID_298_" class="st24" d="M-38,298.3l-12.3,1.2l11.9,0.1c-2.3,2.2-8.8,6.8-17.1,0.6C-55.6,300.2-48.5,290.7-38,298.3z"
	/>
<linearGradient id="XMLID_24_" gradientUnits="userSpaceOnUse" x1="707.7838" y1="1218.5404" x2="724.2874" y2="1218.5404" gradientTransform="matrix(0.7131 -0.7011 -0.7011 -0.7131 343.9785 1682.9609)">
	<stop  offset="0" style="stop-color:#8BC53F"/>
	<stop  offset="1" style="stop-color:#006838"/>
</linearGradient>
<path id="XMLID_297_" class="st25" d="M4.2,304.2l-5.5,10.9l6.4-9.8c0.6,3.1,1.1,11.1-8.6,14.5C-3.6,319.8-7.9,308.7,4.2,304.2z"/>
<linearGradient id="XMLID_25_" gradientUnits="userSpaceOnUse" x1="539.6805" y1="908.4943" x2="556.3788" y2="908.4943" gradientTransform="matrix(2.930571e-03 -1 -1 -2.930571e-03 922.0491 864.1512)">
	<stop  offset="0" style="stop-color:#8BC53F"/>
	<stop  offset="1" style="stop-color:#006838"/>
</linearGradient>
<path id="XMLID_296_" class="st26" d="M12.3,305.1l3.9,11.7l-2.5-11.6c2.6,1.8,8.6,7.1,4.3,16.5C17.9,321.8,7.1,316.9,12.3,305.1z"
	/>
<linearGradient id="XMLID_26_" gradientUnits="userSpaceOnUse" x1="299.9187" y1="1144.0869" x2="316.617" y2="1144.0869" gradientTransform="matrix(0.9096 0.4156 0.4156 -0.9096 -783.8062 1206.5973)">
	<stop  offset="0" style="stop-color:#8BC53F"/>
	<stop  offset="1" style="stop-color:#006838"/>
</linearGradient>
<path id="XMLID_295_" class="st27" d="M-19.2,294.9l-12.3-1.3l11.6,2.5c-2.7,1.7-10,4.9-16.8-2.9C-36.7,293.1-27.8,285.3-19.2,294.9
	z"/>
<linearGradient id="XMLID_27_" gradientUnits="userSpaceOnUse" x1="284.7754" y1="1146.4324" x2="301.4737" y2="1146.4324" gradientTransform="matrix(0.8323 0.5543 0.5543 -0.8323 -890.8793 1079.303)">
	<stop  offset="0" style="stop-color:#8BC53F"/>
	<stop  offset="1" style="stop-color:#006838"/>
</linearGradient>
<path id="XMLID_335_" class="st28" d="M-2.9,289.8l-11.9-3.3l11,4.3c-2.9,1.2-10.7,3.2-16.1-5.6C-19.9,285.3-9.9,279-2.9,289.8z"/>
<linearGradient id="XMLID_28_" gradientUnits="userSpaceOnUse" x1="-24.0185" y1="341.9912" x2="3.8439" y2="341.9912" gradientTransform="matrix(-0.9961 8.850031e-02 8.850031e-02 0.9961 51.6521 -64.5527)">
	<stop  offset="0" style="stop-color:#8BC53F"/>
	<stop  offset="1" style="stop-color:#006838"/>
</linearGradient>
<path id="XMLID_344_" class="st29" d="M78.5,281.3l18.9-8.3l-18.8,6.1c2.6-4.5,10.7-15,26.8-9.9C105.4,269.2,98.6,287.5,78.5,281.3z
	"/>
<linearGradient id="XMLID_29_" gradientUnits="userSpaceOnUse" x1="-60.9253" y1="231.7042" x2="-43.7785" y2="231.7042" gradientTransform="matrix(-1 -8.396698e-05 -8.396698e-05 1 61.5716 42.7868)">
	<stop  offset="0" style="stop-color:#8BC53F"/>
	<stop  offset="1" style="stop-color:#006838"/>
</linearGradient>
<path id="XMLID_340_" class="st30" d="M105.3,277.6l12-4.1l-11.8,2.8c1.9-2.6,7.4-8.6,16.9-4.7C122.5,271.5,117.3,282.3,105.3,277.6
	z"/>
<linearGradient id="XMLID_30_" gradientUnits="userSpaceOnUse" x1="395.7241" y1="724.7026" x2="418.1185" y2="724.7026" gradientTransform="matrix(-1.0582 0.5516 0.574 0.9826 95.5271 -674.2745)">
	<stop  offset="0" style="stop-color:#8BC53F"/>
	<stop  offset="1" style="stop-color:#006838"/>
</linearGradient>
<path id="XMLID_339_" class="st31" d="M71.3,272.2l13.6-13.8l-14.4,11.9c0.5-4.8,3.5-16.5,20.1-17.9C90.6,252.4,92,270.2,71.3,272.2
	z"/>
<linearGradient id="XMLID_31_" gradientUnits="userSpaceOnUse" x1="386.871" y1="1012.0546" x2="403.4167" y2="1012.0546" gradientTransform="matrix(-0.7429 0.6694 0.6694 0.7429 -286.3586 -770.5121)">
	<stop  offset="0" style="stop-color:#8BC53F"/>
	<stop  offset="1" style="stop-color:#006838"/>
</linearGradient>
<path id="XMLID_338_" class="st32" d="M93.4,253.5l6-10.7l-6.8,9.5c-0.5-3.1-0.6-11.1,9.3-14.2C101.8,238.2,105.6,249.6,93.4,253.5z
	"/>
<linearGradient id="XMLID_32_" gradientUnits="userSpaceOnUse" x1="53.0466" y1="510.2955" x2="70.0725" y2="510.2955" gradientTransform="matrix(-0.9757 0.2189 0.2189 0.9757 15.5829 -231.9199)">
	<stop  offset="0" style="stop-color:#8BC53F"/>
	<stop  offset="1" style="stop-color:#006838"/>
</linearGradient>
<path id="XMLID_337_" class="st33" d="M59.6,284.2l10.8-6.5l-10.9,5.2c1.2-3,5.2-10,15.4-8C74.9,274.8,72.3,286.4,59.6,284.2z"/>
<linearGradient id="XMLID_33_" gradientUnits="userSpaceOnUse" x1="210.878" y1="845.4237" x2="227.6236" y2="845.4237" gradientTransform="matrix(-0.8605 0.5094 0.5094 0.8605 -134.1389 -580.8356)">
	<stop  offset="0" style="stop-color:#8BC53F"/>
	<stop  offset="1" style="stop-color:#006838"/>
</linearGradient>
<path id="XMLID_336_" class="st34" d="M102.2,265.1l8.1-9.3l-8.7,8.1c0.2-3.2,1.7-11,12.1-12.2C113.7,251.7,115,263.5,102.2,265.1z"
	/>
<linearGradient id="XMLID_34_" gradientUnits="userSpaceOnUse" x1="449.8232" y1="1035.0951" x2="466.3268" y2="1035.0951" gradientTransform="matrix(-0.7131 0.7011 0.7011 0.7131 -323.0932 -811.7493)">
	<stop  offset="0" style="stop-color:#8BC53F"/>
	<stop  offset="1" style="stop-color:#006838"/>
</linearGradient>
<path id="XMLID_299_" class="st35" d="M72.1,255.4l5.5-10.9l-6.4,9.8c-0.6-3.1-1.1-11.1,8.6-14.5C79.8,239.7,84.1,250.9,72.1,255.4z
	"/>
<linearGradient id="XMLID_35_" gradientUnits="userSpaceOnUse" x1="515.8669" y1="1051.556" x2="532.127" y2="1051.556" gradientTransform="matrix(-0.6698 0.7426 0.7426 0.6698 -344.4154 -859.267)">
	<stop  offset="0" style="stop-color:#8BC53F"/>
	<stop  offset="1" style="stop-color:#006838"/>
</linearGradient>
<path id="XMLID_283_" class="st36" d="M82.3,242.2l4.6-11.2l-5.6,10.1c-0.9-3.1-2-11.1,7.5-15C88.8,226.2,93.9,237.1,82.3,242.2z"/>
<linearGradient id="XMLID_36_" gradientUnits="userSpaceOnUse" x1="652.9743" y1="1152.3635" x2="669.3044" y2="1152.3635" gradientTransform="matrix(-0.5589 0.8292 0.8292 0.5589 -514.0728 -965.6239)">
	<stop  offset="0" style="stop-color:#8BC53F"/>
	<stop  offset="1" style="stop-color:#006838"/>
</linearGradient>
<path id="XMLID_261_" class="st37" d="M69.9,235.1l3.1-11.7l-4.2,10.8c-1.3-2.9-3.4-10.7,5.4-15.9C74.2,218.3,80.7,228.4,69.9,235.1
	z"/>
<linearGradient id="XMLID_37_" gradientUnits="userSpaceOnUse" x1="668.3087" y1="1149.6445" x2="684.6389" y2="1149.6445" gradientTransform="matrix(-0.5589 0.8292 0.8292 0.5589 -514.0728 -965.6239)">
	<stop  offset="0" style="stop-color:#8BC53F"/>
	<stop  offset="1" style="stop-color:#006838"/>
</linearGradient>
<path id="XMLID_260_" class="st38" d="M59.1,246.3l3.1-11.7L58,245.4c-1.3-2.9-3.4-10.7,5.4-15.9C63.4,229.5,69.9,239.6,59.1,246.3z
	"/>
<linearGradient id="XMLID_38_" gradientUnits="userSpaceOnUse" x1="282.3989" y1="848.0644" x2="299.0973" y2="848.0644" gradientTransform="matrix(-0.8356 0.5493 0.5493 0.8356 -161.0611 -613.9928)">
	<stop  offset="0" style="stop-color:#8BC53F"/>
	<stop  offset="1" style="stop-color:#006838"/>
</linearGradient>
<path id="XMLID_259_" class="st39" d="M56.4,261.4l7.7-9.7l-8.3,8.5c0-3.2,1.2-11.1,11.4-12.7C67.3,247.5,69.2,259.2,56.4,261.4z"/>
<linearGradient id="XMLID_39_" gradientUnits="userSpaceOnUse" x1="843.2069" y1="1193.853" x2="859.4376" y2="1193.853" gradientTransform="matrix(-0.4213 0.9069 0.9069 0.4213 -668.0573 -1054.3418)">
	<stop  offset="0" style="stop-color:#8BC53F"/>
	<stop  offset="1" style="stop-color:#006838"/>
</linearGradient>
<path id="XMLID_258_" class="st40" d="M55.3,229.3l1.1-12l-2.3,11.3c-1.7-2.7-5.2-10,2.7-16.5C56.8,212.1,64.9,221.1,55.3,229.3z"/>
<linearGradient id="XMLID_40_" gradientUnits="userSpaceOnUse" x1="396.3249" y1="764.017" x2="418.7193" y2="764.017" gradientTransform="matrix(-0.8462 0.8415 0.8404 0.7673 -247.925 -652.5712)">
	<stop  offset="0" style="stop-color:#8BC53F"/>
	<stop  offset="1" style="stop-color:#006838"/>
</linearGradient>
<path id="XMLID_257_" class="st41" d="M43.1,289l8.9-17.2l-10.3,15.6c-0.9-4.7-1.6-16.8,13.9-23.1C55.7,264.3,62.3,280.9,43.1,289z"
	/>
<linearGradient id="XMLID_41_" gradientUnits="userSpaceOnUse" x1="1189.4044" y1="1187.7065" x2="1208.4851" y2="1187.7065" gradientTransform="matrix(-0.2912 1.1573 1.1157 0.2241 -930.2858 -1400.6621)">
	<stop  offset="0" style="stop-color:#8BC53F"/>
	<stop  offset="1" style="stop-color:#006838"/>
</linearGradient>
<path id="XMLID_256_" class="st42" d="M47.1,264.9l-1.6-16.6l-0.2,16c-3-3.1-9.5-11.9-0.7-23.1C44.6,241.2,57.8,250.8,47.1,264.9z"
	/>
<linearGradient id="XMLID_42_" gradientUnits="userSpaceOnUse" x1="1143.8276" y1="1261.0768" x2="1159.9932" y2="1261.0768" gradientTransform="matrix(-0.1989 0.98 0.98 0.1989 -959.7349 -1148.1744)">
	<stop  offset="0" style="stop-color:#8BC53F"/>
	<stop  offset="1" style="stop-color:#006838"/>
</linearGradient>
<path id="XMLID_255_" class="st43" d="M48.4,240.1l-1.9-12l0.5,11.5c-2.4-2.3-7.5-8.6-1.5-16.6C45.6,223.1,55.8,230,48.4,240.1z"/>
<linearGradient id="XMLID_43_" gradientUnits="userSpaceOnUse" x1="-125.8546" y1="516.184" x2="-108.7078" y2="516.184" gradientTransform="matrix(-0.9305 0.3663 -0.3663 -0.9305 194.0633 810.9285)">
	<stop  offset="0" style="stop-color:#8BC53F"/>
	<stop  offset="1" style="stop-color:#006838"/>
</linearGradient>
<path id="XMLID_254_" class="st44" d="M105,288l12.7-0.6l-12,1.7c2.7,1.8,10.1,5.3,17.5-1.9C123.1,287.3,114.3,279.1,105,288z"/>
<linearGradient id="XMLID_44_" gradientUnits="userSpaceOnUse" x1="518.3865" y1="958.5134" x2="540.7809" y2="958.5134" gradientTransform="matrix(-1.0582 -0.5516 0.574 -0.9826 95.5271 1545.4862)">
	<stop  offset="0" style="stop-color:#8BC53F"/>
	<stop  offset="1" style="stop-color:#006838"/>
</linearGradient>
<path id="XMLID_253_" class="st45" d="M75.7,301.6l13.6,13.8l-14.4-11.9c0.5,4.8,3.5,16.5,20.1,17.9
	C95.1,321.4,96.4,303.6,75.7,301.6z"/>
<linearGradient id="XMLID_45_" gradientUnits="userSpaceOnUse" x1="545.5546" y1="1269.8862" x2="562.1003" y2="1269.8862" gradientTransform="matrix(-0.9005 -0.4348 0.4348 -0.9005 51.8947 1697.1012)">
	<stop  offset="0" style="stop-color:#8BC53F"/>
	<stop  offset="1" style="stop-color:#006838"/>
</linearGradient>
<path id="XMLID_252_" class="st46" d="M99.1,306.5l8.8,8.6l-9.2-7.3c0.4,3.2,2.5,10.8,12.9,11C111.6,318.8,112,306.9,99.1,306.5z"/>
<linearGradient id="XMLID_46_" gradientUnits="userSpaceOnUse" x1="231.5507" y1="1113.1909" x2="248.2964" y2="1113.1909" gradientTransform="matrix(-0.9755 0.2202 -0.2202 -0.9755 593.1204 1334.5044)">
	<stop  offset="0" style="stop-color:#8BC53F"/>
	<stop  offset="1" style="stop-color:#006838"/>
</linearGradient>
<path id="XMLID_251_" class="st47" d="M105.1,300.5l12.3,1.2l-11.9,0.1c2.3,2.2,8.8,6.8,17.1,0.6
	C122.7,302.3,115.6,292.9,105.1,300.5z"/>
<linearGradient id="XMLID_47_" gradientUnits="userSpaceOnUse" x1="673.3091" y1="1249.417" x2="689.8127" y2="1249.417" gradientTransform="matrix(-0.7131 -0.7011 0.7011 -0.7131 -323.0932 1682.9609)">
	<stop  offset="0" style="stop-color:#8BC53F"/>
	<stop  offset="1" style="stop-color:#006838"/>
</linearGradient>
<path id="XMLID_250_" class="st48" d="M63,306.3l5.5,10.9l-6.4-9.8c-0.6,3.1-1.1,11.1,8.6,14.5C70.7,322,75,310.8,63,306.3z"/>
<linearGradient id="XMLID_48_" gradientUnits="userSpaceOnUse" x1="537.3945" y1="954.7181" x2="554.0929" y2="954.7181" gradientTransform="matrix(-2.930571e-03 -1 1 -2.930571e-03 -901.1638 864.1512)">
	<stop  offset="0" style="stop-color:#8BC53F"/>
	<stop  offset="1" style="stop-color:#006838"/>
</linearGradient>
<path id="XMLID_249_" class="st49" d="M54.8,307.3L51,319l2.5-11.6c-2.6,1.8-8.6,7.1-4.3,16.5C49.2,324,60,319.1,54.8,307.3z"/>
<linearGradient id="XMLID_49_" gradientUnits="userSpaceOnUse" x1="258.7628" y1="1122.9194" x2="275.4611" y2="1122.9194" gradientTransform="matrix(-0.9096 0.4156 -0.4156 -0.9096 804.6914 1206.5973)">
	<stop  offset="0" style="stop-color:#8BC53F"/>
	<stop  offset="1" style="stop-color:#006838"/>
</linearGradient>
<path id="XMLID_248_" class="st50" d="M86.3,297.1l12.3-1.3L87,298.2c2.7,1.7,10,4.9,16.8-2.9C103.8,295.3,94.9,287.4,86.3,297.1z"
	/>
<linearGradient id="XMLID_50_" gradientUnits="userSpaceOnUse" x1="247.4901" y1="1119.0156" x2="264.1884" y2="1119.0156" gradientTransform="matrix(-0.8323 0.5543 -0.5543 -0.8323 911.7646 1079.303)">
	<stop  offset="0" style="stop-color:#8BC53F"/>
	<stop  offset="1" style="stop-color:#006838"/>
</linearGradient>
<path id="XMLID_247_" class="st51" d="M70,292l11.9-3.3l-11,4.3c2.9,1.2,10.7,3.2,16.1-5.6C87,287.5,77,281.1,70,292z"/>
<path id="XMLID_307_" class="st0" d="M43.2,342.3c-5.7-6.3-4.2-16.8-4.4-23.7c-0.1-4.8,0.6-9.8,3.4-13.7c1.7-2.4,13-12.7,15.6-15.3
	c1.2-1.1-4.1,1.2-5.5,2c-1.1,0.6-6.7,4.9-7.6,5.3c-0.9,0.4-1.8,0.9-2.6,1.4c-0.9,0.6-3.3,0.3-3.3-0.8c0.1-1.8-1.1-7.3-2.1-10.3
	c-0.5-1.5-2.4-5.3-2.4-3.8c-0.1,1.7-0.7,12-1.5,13.2c-1.7,2.6-2.5,2.6-6.3,1.6c-2.5-0.6-4.6-2.9-8-5.3c-2.1-1.5-6.6-4.5-7.6-4
	c0.3,1.8,8,8.5,8.6,9.1c2,2,7.4,8.5,8.2,9.8c3.2,5.4,3.1,28.9-2.4,33.7C23.6,342.9,43.2,342.3,43.2,342.3z"/>
<linearGradient id="XMLID_51_" gradientUnits="userSpaceOnUse" x1="352.0036" y1="1161.7653" x2="368.7019" y2="1161.7653" gradientTransform="matrix(0.9513 0.3082 0.3082 -0.9513 -695.5796 1289.7529)">
	<stop  offset="0" style="stop-color:#8BC53F"/>
	<stop  offset="1" style="stop-color:#006838"/>
</linearGradient>
<path id="XMLID_285_" class="st52" d="M14.1,295.4l-12.4,0.1l11.8,1.2c-2.5,2-9.4,6-17.1-1C-3.5,295.7,4.5,286.9,14.1,295.4z"/>
<linearGradient id="XMLID_52_" gradientUnits="userSpaceOnUse" x1="291.8376" y1="1148.0017" x2="308.5359" y2="1148.0017" gradientTransform="matrix(-0.9908 0.135 -0.135 -0.9908 515.2632 1394.4597)">
	<stop  offset="0" style="stop-color:#8BC53F"/>
	<stop  offset="1" style="stop-color:#006838"/>
</linearGradient>
<path id="XMLID_293_" class="st53" d="M54.1,295.8l12.1,2.3l-11.8-0.9c2.1,2.4,8.2,7.6,17,2C71.5,299.1,65.2,289,54.1,295.8z"/>
</svg>
